<svg width="325" height="100" viewBox="0 0 325 100" version="1.1" xmlns="http://www.w3.org/2000/svg"
  xmlns:xlink="http://www.w3.org/1999/xlink">
  <defs>
    <linearGradient id="rainbow" x1="0" y1="0" x2="1" y2="0">
      <stop offset="0" stop-color="#ff0" />
      <stop offset="0.167" stop-color="#0f0" />
      <stop offset="0.333" stop-color="#0ff" />
      <stop offset="0.5" stop-color="#00f" />
      <stop offset="0.667" stop-color="#f0f" />
      <stop offset="0.833" stop-color="#f00" />
      <stop offset="1" stop-color="#ff0" />
    </linearGradient>
  </defs>
  <rect x="0" y="0" width="325" height="100" style="fill:#2c0505;stroke:url(#rainbow);stroke-width:10;" />
  <path d="M50,20
  l20,-10
  h10
  l-35,70
  h20
  l-5,10
  h-50
  l5,-10
  h20
  l30,-60
  z
  M125,20
  l20,-10
  h10
  l-35,70
  h20
  l-5,10
  h-50
  l5,-10
  h20
  l30,-60
  z
  M200,20
  l20,-10
  h10
  l-35,70
  h20
  l-5,10
  h-50
  l5,-10
  h20
  l30,-60
  z
  M275,20
  l20,-10
  h10
  l-35,70
  h20
  l-5,10
  h-50
  l5,-10
  h20
  l30,-60
  z" fill="url(#rainbow)" stroke="url(#rainbow)" stroke-width="1" />
</svg>