<svg
    width="120"
    height="120"
    viewBox="-10 -10 120 120"
    version="1.1"
    xmlns="http://www.w3.org/2000/svg"
    xmlns:svg="http://www.w3.org/2000/svg"
>
    <defs id="defs1">
        <linearGradient id="prismGradient" x1="0%" y1="0%" x2="100%" y2="25%">
            <stop offset="0%" stop-color="#ff0000" />
            <stop offset="25%" stop-color="#ffff00" />
            <stop offset="45%" stop-color="#00ff00" />
            <stop offset="55%" stop-color="#00ffff" />
            <stop offset="75%" stop-color="#0000ff" />
            <stop offset="100%" stop-color="#ff00ff" />
        </linearGradient>
        <filter id="glow" x="-20%" y="-20%" width="140%" height="140%">
            <feGaussianBlur stdDeviation="6" result="blur" />
            <feMerge>
                <feMergeNode in="blur" />
                <feMergeNode in="SourceGraphic" />
            </feMerge>
        </filter>
    </defs>
    <path
        style="
            baseline-shift: baseline;
            display: inline;
            overflow: visible;
            vector-effect: none;
            enable-background: accumulate;
            stop-color: #000000;
            stop-opacity: 1;
            opacity: 1;
            filter: url(#glow);
        "
        fill="url(#prismGradient)"
        d="M0 5
        l5 -5
        h 90
        l 5 5
        v 90
        l -5 5
        h -25
        v -20
        l -5 -5
        h 10
        l 10 -10
        v -25
        l -10 -10
        l 2 -15
        l -17 15
        h -20
        l -17 -15
        l 2 15
        l -10 10
        v 25
        l 10 10
        h 10
        l -5 5
        v 6
        h -5
        l -15 -10
        v 8
        l 15 10
        h 5
        v 6
        h -25
        l -5 -5
        z"
        id="path2"
    />
    <path
        style="
            baseline-shift: baseline;
            display: inline;
            overflow: visible;
            vector-effect: none;
            enable-background: accumulate;
            stop-color: #000000;
            stop-opacity: 1;
            opacity: 1;
        "
        d="M0 5
        l5 -5
        h 90
        l 5 5
        v 90
        l -5 5
        h -25
        v -20
        l -5 -5
        h 10
        l 10 -10
        v -25
        l -10 -10
        l 2 -15
        l -17 15
        h -20
        l -17 -15
        l 2 15
        l -10 10
        v 25
        l 10 10
        h 10
        l -5 5
        v 6
        h -5
        l -15 -10
        v 8
        l 15 10
        h 5
        v 6
        h -25
        l -5 -5
        z"
        fill="#ffffff"
        id="path1"
    />
</svg>
