<svg
    width="120"
    height="120"
    viewBox="-10 -10 120 120"
    version="1.1"
    xmlns="http://www.w3.org/2000/svg"
    xmlns:svg="http://www.w3.org/2000/svg"
>
    <defs id="defs1">
        <linearGradient id="prismGradient" x1="0%" y1="0%" x2="100%" y2="-5%">
            <stop offset="0%" stop-color="#ff0000" />
            <stop offset="25%" stop-color="#ffff00" />
            <stop offset="45%" stop-color="#00ff00" />
            <stop offset="55%" stop-color="#00ffff" />
            <stop offset="75%" stop-color="#0000ff" />
            <stop offset="100%" stop-color="#ff00ff" />
        </linearGradient>
        <filter id="glow" x="-20%" y="-20%" width="140%" height="140%">
            <feGaussianBlur stdDeviation="6" result="blur" />
            <feMerge>
                <feMergeNode in="blur" />
                <feMergeNode in="SourceGraphic" />
            </feMerge>
        </filter>
    </defs>
    <path
        style="
            baseline-shift: baseline;
            display: inline;
            overflow: visible;
            vector-effect: none;
            enable-background: accumulate;
            stop-color: #000000;
            stop-opacity: 1;
            opacity: 1;
            filter: url(#glow);
        "
        fill="url(#prismGradient)"
        d="M 0,100 21,5 15,0 h 7.16312 15.780142 L 35.283688,11.830986 52.659575,0 H 85.283688 L 100,14.225352 90.425533,57.605634 71.808511,70.140845 H 37.234043 L 25.35461,60.422535 17.607199,95.009598 25,100 Z M 41.666667,58.732394 28.19149,47.183099 33.156029,25.352113 53.5461,11.408451 H 76.241135 L 82.801419,17.746479 75,52.394366 65.602837,58.732394 Z"
        id="path2"
        fill-rule="evenodd"
    />
    <path
        style="
            baseline-shift: baseline;
            display: inline;
            overflow: visible;
            vector-effect: none;
            enable-background: accumulate;
            stop-color: #000000;
            stop-opacity: 1;
            opacity: 1;
        "
        d="M 0,100 21,5 15,0 h 7.16312 15.780142 L 35.283688,11.830986 52.659575,0 H 85.283688 L 100,14.225352 90.425533,57.605634 71.808511,70.140845 H 37.234043 L 25.35461,60.422535 17.607199,95.009598 25,100 Z M 41.666667,58.732394 28.19149,47.183099 33.156029,25.352113 53.5461,11.408451 H 76.241135 L 82.801419,17.746479 75,52.394366 65.602837,58.732394 Z"
        fill="#ffffff"
        fill-rule="evenodd"
        id="path1"
    />
</svg>
