<svg
    width="100"
    height="100"
    viewBox="0 0 100 100"
    version="1.1"
    xmlns="http://www.w3.org/2000/svg"
    xmlns:svg="http://www.w3.org/2000/svg"
>
    <defs id="defs1">
        <linearGradient id="prismGradient" x1="0%" y1="0%" x2="100%" y2="20%">
            <stop offset="0%" stop-color="#ff0000" />
            <stop offset="25%" stop-color="#ffff00" />
            <stop offset="45%" stop-color="#00ff00" />
            <stop offset="55%" stop-color="#00ffff" />
            <stop offset="75%" stop-color="#0000ff" />
            <stop offset="100%" stop-color="#ff00ff" />
        </linearGradient>
        <filter id="glow" x="-20%" y="-20%" width="140%" height="140%">
            <feGaussianBlur stdDeviation="2" result="blur" />
            <feMerge>
                <feMergeNode in="blur" />
                <feMergeNode in="SourceGraphic" />
            </feMerge>
        </filter>
    </defs>
    <path
        style="
            baseline-shift: baseline;
            display: inline;
            overflow: visible;
            vector-effect: none;
            enable-background: accumulate;
            stop-color: #000000;
            stop-opacity: 1;
            opacity: 1;
            filter: url(#glow);
        "
        fill="url(#prismGradient)"
        d="M 23.964844,37.5 17.5,43.964844 V 56.035156 L 23.964844,62.5 h 17.070312 l 20,-20 H 73.964844 L 77.5,46.035156 v 7.929688 L 73.964844,57.5 H 61.035156 L 56.767578,53.232422 53.232422,56.767578 58.964844,62.5 H 76.035156 L 82.5,56.035156 V 43.964844 L 76.035156,37.5 H 58.964844 l -20,20 H 26.035156 L 22.5,53.964844 V 46.035156 L 26.035156,42.5 h 12.929688 l 4.267578,4.267578 3.535156,-3.535156 L 41.035156,37.5 Z"
        id="path2"
    />
    <path
        style="
            baseline-shift: baseline;
            display: inline;
            overflow: visible;
            vector-effect: none;
            enable-background: accumulate;
            stop-color: #000000;
            stop-opacity: 1;
            opacity: 1;
        "
        d="M 23.964844,37.5 17.5,43.964844 V 56.035156 L 23.964844,62.5 h 17.070312 l 20,-20 H 73.964844 L 77.5,46.035156 v 7.929688 L 73.964844,57.5 H 61.035156 L 56.767578,53.232422 53.232422,56.767578 58.964844,62.5 H 76.035156 L 82.5,56.035156 V 43.964844 L 76.035156,37.5 H 58.964844 l -20,20 H 26.035156 L 22.5,53.964844 V 46.035156 L 26.035156,42.5 h 12.929688 l 4.267578,4.267578 3.535156,-3.535156 L 41.035156,37.5 Z"
        fill="currentColor"
        id="path1"
    />
</svg>
