<svg xmlns="http://www.w3.org/2000/svg" viewBox="0 0 300 100">
    <path
        d="
        M 20 10
        l -5 5
        l -1 5
        h 24
        l -15 40
        h -2
        l -5 4
        h 11
        l 16 -44
        h 21
        l -2 5
        l 5 -5
        l 1 -5
        h -51
        z
        M 62 25
        l 10 -10
        h 7
        l -8 24
        l 5 -4
        h 14
        l 3 5
        l -8 21
        l 6 -1
        l -6 4
        h -6
        l 8 -22
        l -2 -3
        h -8
        l -4 3
        l -8 22
        h -10
        l 4 -4
        h 2
        l 13 -39
        z
        M 91 60
        l 10 -20
        l 7 -5
        h 16
        l 3 5
        l -1 6
        l -6 5
        h -18
        l 1 -4
        h 14
        l 4 -2
        l 1 -3
        l -2 -3
        h -10
        l -4 3
        l -6 15
        l 2 3
        h 12
        l 4 -2
        l 2 -5
        h 5
        l -2 6
        l -6 5
        h -16
        l -4 -6
        l 1 -5
        z
        "
        fill="#fff"
        stroke="none"
    />
</svg>
