<svg xmlns="http://www.w3.org/2000/svg" viewBox="0 0 500 100">
    <path
        d="
        M 20 10
        l -5 5
        l -1 5
        h 20
        l -15 40
        h -2
        l -5 4
        h 11
        l 16 -44
        h 18
        l -2 5
        l 5 -5
        l 1 -5
        h -42
        z
        M 55 25
        l 10 -10
        h 7
        l -8 24
        l 5 -4
        h 15
        l 3 5
        l -8 21
        l 6 -1
        l -6 4
        h -6
        l 8 -22
        l -2 -3
        h -10
        l -5 5
        l -7 20
        h -10
        l 4 -4
        h 2
        l 13 -39
        z
        M 85 60
        l 10 -20
        l 7 -5
        h 16
        l 3 5
        l -1 6
        l -6 5
        h -18
        l 1 -4
        h 14
        l 4 -2
        l 1 -3
        l -2 -3
        h -10
        l -4 3
        l -6 15
        l 2 3
        h 12
        l 4 -2
        l 2 -5
        h 5
        l -2 6
        l -6 5
        h -16
        l -4 -6
        l 1 -5
        z
        M 150 35
        l 4 -15
        l 5 -5
        h 18
        l -5 4
        h -2
        l -12 41
        l 3 -1
        l 10 -15
        l -4 15
        l -5 5
        h -17
        l 4 -4
        h 2
        l 12 -41
        h -2
        z
        v 1
        l 18 8
        v -1
        z
        M 170 45
        l 10 -10
        h 7
        l -1 4
        l 5 -4
        h 14
        l 3 5
        l -8 21
        l 6 -1
        l -6 4
        h -6
        l 8 -22
        l -2 -3
        h -10
        l -4 3
        l -8 22
        h -10
        l 4 -4
        h 2
        l 7 -21
        z
        M 205 60
        l 10 -20
        l 5 -5
        h 10
        l 2 -8
        l 5 -5
        h 15
        l -3 5
        h -8
        l -2 1
        l -2 7
        h 10
        l -3 5
        h -8
        l -8 32
        l -5 5
        h -18
        l -3 -5
        l 4 -12
        l 5 -1
        l -3 10
        l 3 3
        h 9
        l 3 -3
        l 7 -29
        h -10
        z
        M 244 40
        l 11 -5
        h 6
        l -10 26
        l 2 -1
        l 14 -16
        l -7 14
        l -6 6
        h -13
        l 3 -3
        h 2
        l 8 -22
        z
        m 12 -8
        l 2 -6
        l 6 -4
        l -2 6
        z
        M 266 45
        l 10 -10
        h 7
        l -1 4
        l 5 -4
        h 14
        l 3 5
        l -8 21
        l 6 -1
        l -6 4
        h -6
        l 8 -22
        l -2 -3
        h -10
        l -4 3
        l -8 22
        h -10
        l 4 -4
        h 2
        l 7 -21
        z
        M 302 60
        l 10 -20
        l 8 -5
        h 8
        l -10 26
        l 2 -1
        l 11 -16
        l -4 14
        l -6 6
        h -13
        l 3 -3
        h 2
        l 8 -22
        h -2
        z
        m 22 -28
        l 2 -6
        l 6 -4
        l -2 6
        z
        M 330 45
        l 2 -5
        l 5 -5
        h 6
        l 2 -8
        l 6 -4
        l -3 12
        h 8
        l -3 5
        h -6
        l -5 18
        l 2 2
        h 4
        l -1 4
        h -7
        l -4 -6
        l 5 -18
        h -6
        z
        M 350 60
        l 10 -18
        l 7 -7
        h 6
        l -3 12
        l 2 4
        h 6
        l 6 -4
        l 3 -12
        h 6
        l -8 32
        l -6 4
        h -10
        l -2 -4
        l 2 -8
        h 6
        l -1 4
        l 2 4
        h 3
        "
        fill="#fff"
        stroke="none"
    />
</svg>
