<svg xmlns="http://www.w3.org/2000/svg" viewBox="0 0 5000 1000">
    <path
        d="
        M 200 100
        l -50 50
        l -10 50
        h 200
        l -150 400
        h -20
        l -50 40
        h 110
        l 160 -440
        h 180
        l -20 50
        l 50 -50
        l 10 -50
        h -420
        z
        M 550 250
        l 100 -100
        h 70
        l -80 240
        l 50 -40
        h 150
        l 30 50
        l -80 210
        l 60 -10
        l -60 40
        h -60
        l 80 -220
        l -20 -30
        h -100
        l -50 50
        l -70 200
        h -100
        l 40 -40
        h 20
        l 130 -390
        z
        M 850 600
        l 100 -200
        l 70 -50
        h 160
        l 30 50
        l -10 60
        l -60 50
        h -180
        l 10 -40
        h 140
        l 40 -20
        l 10 -30
        l -20 -30
        h -100
        l -40 30
        l -60 150
        l 20 30
        h 120
        l 40 -20
        l 20 -50
        h 50
        l -20 60
        l -60 50
        h -160
        l -40 -60
        l 10 -50
        z
        M 1500 350
        l 40 -150
        l 50 -50
        h 180
        l -50 40
        h -20
        l -120 410
        l 30 -10
        l 100 -150
        l -40 150
        l -50 50
        h -170
        l 40 -40
        h 20
        l 120 -410
        h -20
        z
        v 10
        l 180 80
        v -10
        z
        M 1700 450
        l 100 -100
        h 70
        l -10 40
        l 50 -40
        h 140
        l 30 50
        l -80 210
        l 60 -10
        l -60 40
        h -60
        l 80 -220
        l -20 -30
        h -100
        l -40 30
        l -80 220
        h -100
        l 40 -40
        h 20
        l 70 -210
        z
        M 2050 600
        l 100 -200
        l 50 -50
        h 90
        l 30 -80
        l 50 -50
        h 150
        l -30 50
        h -90
        l -20 10
        l -30 70
        h 100
        l -30 50
        h -80
        l -100 320
        l -50 50
        h -140
        l -30 -50
        l 40 -120
        l 50 -10
        l -30 100
        l 30 30
        h 40
        l 30 -30
        l 100 -290
        h -100
        z
        M 2440 400
        l 110 -50
        h 60
        l -100 260
        l 20 -10
        l 140 -160
        l -70 140
        l -60 60
        h -130
        l 30 -30
        h 20
        l 80 -220
        z
        m 120 -80
        l 20 -60
        l 60 -40
        l -20 60
        z
        M 2660 450
        l 100 -100
        h 70
        l -10 40
        l 50 -40
        h 140
        l 30 50
        l -80 210
        l 60 -10
        l -60 40
        h -60
        l 80 -220
        l -20 -30
        h -100
        l -40 30
        l -80 220
        h -100
        l 40 -40
        h 20
        l 70 -210
        z
        M 3020 600
        l 100 -200
        l 80 -50
        h 80
        l -100 260
        l 20 -10
        l 110 -160
        l -40 140
        l -60 60
        h -130
        l 30 -30
        h 20
        l 80 -220
        h -20
        z
        m 220 -280
        l 20 -60
        l 60 -40
        l -20 60
        z
        M 3300 450
        l 20 -50
        l 50 -50
        h 60
        l 20 -80
        l 60 -40
        l -30 120
        h 80
        l -30 50
        h -60
        l -50 180
        l 20 20
        h 40
        l -10 40
        h -70
        l -40 -60
        l 50 -180
        h -60
        z
        M 3500 600
        l 100 -180
        l 70 -70
        h 50
        l -60 220
        l 20 30
        h 60
        l 30 -30
        l 60 -220
        h 60
        l -120 400
        l -60 30
        h -140
        l -20 -40
        l 20 -60
        l 50 -10
        l -20 50
        l 20 20
        h 80
        l 40 -40
        l 20 -80
        l -30 20
        h -80
        l -30 -60
        l 30 -120
        z
        M 3970 250
        l -20 80
        l 50 -40
        l 20 -80
        z
        M 4050,350
        h 120
        l 20 30
        l -30 70
        h -40
        l 20 -50
        l -10 -20
        h -80
        l -20 20
        l -20 60
        l 20 10
        h 100
        l 20 30
        l -30 100
        l -40 30
        h -160
        l -10 -30
        l 30 -70
        h 50
        l -20 40
        l 10 20
        h 80
        l 20 -10
        l 20 -60
        l -10 -20
        h -100
        l -30 -30
        l 40 -100
        z
        "
        fill="#fff"
        stroke="none"
    />
</svg>
