<?xml version="1.0" encoding="UTF-8" standalone="no"?>
<svg
    viewBox="0 0 4500 900"
    version="1.1"
    id="svg1"
    sodipodi:docname="logo.svg"
    inkscape:version="1.4.3 (0d15f75042, 2025-12-25)"
    xmlns:inkscape="http://www.inkscape.org/namespaces/inkscape"
    xmlns:sodipodi="http://sodipodi.sourceforge.net/DTD/sodipodi-0.dtd"
    xmlns="http://www.w3.org/2000/svg"
    xmlns:svg="http://www.w3.org/2000/svg"
>
    <defs id="defs1" />
    <sodipodi:namedview
        id="namedview1"
        pagecolor="#505050"
        bordercolor="#eeeeee"
        borderopacity="1"
        inkscape:showpageshadow="0"
        inkscape:pageopacity="0"
        inkscape:pagecheckerboard="0"
        inkscape:deskcolor="#505050"
        showgrid="true"
        showguides="false"
        inkscape:zoom="0.17562011"
        inkscape:cx="1637.0563"
        inkscape:cy="973.6926"
        inkscape:window-width="1280"
        inkscape:window-height="720"
        inkscape:window-x="0"
        inkscape:window-y="0"
        inkscape:window-maximized="1"
        inkscape:current-layer="svg1"
    >
        <inkscape:grid
            id="grid1"
            units="px"
            originx="0"
            originy="0"
            spacingx="1"
            spacingy="1"
            empcolor="#0099e5"
            empopacity="0.30196078"
            color="#0099e5"
            opacity="0.14901961"
            empspacing="5"
            enabled="true"
            visible="true"
            dotted="false"
        />
    </sodipodi:namedview>
    <path
        d="m 4030,350 h 160 l 20,30 -30,65 -40,5 25,-55 -10,-15 h -105 l -15,15 -25,60 15,15 h 105 l 30,30 -40,120 -40,30 h -170 l -15,-30 40,-90 45,-5 -30,65 15,20 h 110 l 15,-15 30,-80 -10,-15 h -120 l -20,-40 35,-90 z"
        id="path16"
        style="fill: #ffffff; fill-opacity: 1"
        sodipodi:nodetypes="ccccccccccccccccccccccccccccc"
    />
    <path
        d="m 3950,270 -20,80 50,-40 20,-80 z"
        id="path15"
        style="fill: #ffffff; fill-opacity: 1"
        sodipodi:nodetypes="ccccc"
    />
    <path
        d="m 3525,620 110,-210 55,-60 h 40 l -80,250 15,20 h 80 l 50,-40 75,-230 h 40 l -130,400 -60,50 h -155 l -20,-40 20,-60 50,-20 -25,70 10,20 h 105 l 35,-30 40,-110 -35,20 h -100 l -40,-50 60,-165 z"
        id="path14"
        style="fill: #ffffff; fill-opacity: 1"
        sodipodi:nodetypes="cccccccccccccccccccccccccc"
    />
    <path
        d="m 3325,450 10,-50 50,-50 h 75 l 24,-80 45,-20 -29,100 h 105 l -50,50 h -70 l -60,200 15,20 h 85 l -15,30 h -90 l -35,-50 60,-200 h -60 l -20,5 z"
        id="path13"
        style="fill: #ffffff; fill-opacity: 1"
        sodipodi:nodetypes="cccccccccccccccccccc"
    />
    <path
        id="path8"
        d="m 2413,400 137,-50 h 60 l -100,270 30,-10 140,-160 -70,140 -60,60 h -165 l 45,-30 h 30 l 80,-230 z m 147,-70 20,-70 60,-50 -20,70 z"
        style="fill: #ffffff; fill-opacity: 1"
        sodipodi:nodetypes="cccccccccccccccccc"
    />
    <path
        d="m 2060,590 85,-190 80,-50 h 58 l 30,-90 60,-50 h 130 l -30,50 h -88 l -20,10 -32,80 h 105 l -25,50 h -93 l -110,350 -60,50 h -115 l -40,-50 25,-80 45,-15 -30,85 20,20 h 80 l 25,-20 110,-340 h -50 l -20,10 z"
        id="path7"
        style="fill: #ffffff; fill-opacity: 1"
        sodipodi:nodetypes="cccccccccccccccccccccccccccc"
    />
    <path
        id="path4"
        d="m 1460,350 60,-140 60,-60 h 230 l -50,50 h -70 l -145,400 50,-10 120,-140 -60,140 -50,60 h -250 l 50,-50 h 70 l 145,-400 -50,10 z m 0,0 5,10 250,90 -5,-10 z"
        style="fill: #ffffff; fill-opacity: 1"
        sodipodi:nodetypes="cccccccccccccccccccccc"
    />
    <path
        d="m 795,590 110,-190 60,-50 h 120 l 60,65 -10,50 -60,50 H 900 l 10,-30 h 155 l 40,-35 5,-25 -25,-35 H 965 l -40,35 -40,160 15,25 h 110 l 50,-35 15,-30 40,-10 -15,45 -85,70 H 890 l -50,-60 10,-45 z"
        id="path3"
        style="fill: #ffffff; fill-opacity: 1"
        sodipodi:nodetypes="ccccccccccccccccccccccccccc"
    />
    <path
        d="M 490,250 590,150 h 50 l -10,50 -50.08256,200 60,-50 H 730 l 60,75 -45,175 50,-10 -60,60 h -50 l 55,-225 -25,-25 h -75 l -75,60 -50,190 H 395 l 75,-50 h 10 L 580,200 Z"
        id="path2"
        style="fill: #ffffff; fill-opacity: 1"
        sodipodi:nodetypes="cccccccccccccccccccccc"
    />
    <path
        d="m 160,100 -50,50 -10,50 H 300 L 180,600 H 170 L 95,650 H 215 L 350,200 h 150 l -10,50 50,-50 10,-50 H 150 Z"
        id="path1"
        style="fill: #ffffff; fill-opacity: 1"
        sodipodi:nodetypes="ccccccccccccccc"
    />
    <path
        d="m 1715,450 100,-100 h 50 l -10,50 59.9174,-50 H 1995 l 60,75 -55,175 60,-10 -70,60 h -50 l 65,-225 -25,-25 h -65 l -75,60 -60,190 h -120 l 75,-50 h 10 l 60,-200 z"
        style="fill: #ffffff; fill-opacity: 1"
        id="path1-5"
        sodipodi:nodetypes="ccccccccccccccccccccc"
    />
    <path
        d="m 2680,450 105,-100 h 50 l -10,50 59.9174,-50 H 2965 l 60,75 -45,175 70,-55 -80,105 h -50 l 55,-225 -25,-25 h -65 l -75,60 -60,190 h -120 l 75,-50 h 10 l 60,-200 z"
        style="fill: #ffffff; fill-opacity: 1"
        id="path1-2"
        sodipodi:nodetypes="ccccccccccccccccccccc"
    />
    <path
        d="m 3050,545 165,-195 h 60 l -100,270 30,-10 120,-160 -50,140 -60,60 h -165 l 45,-30 h 30 l 70,-210 z m 165,-215 20,-70 60,-50 -20,70 z"
        style="fill: #ffffff; fill-opacity: 1"
        id="path1-7"
        sodipodi:nodetypes="cccccccccccccccccc"
    />
</svg>
