<svg
  version="1.1"
  xmlns="http://www.w3.org/2000/svg"
  xmlns:xlink="http://www.w3.org/1999/xlink"
  width="451.89512"
  height="85.99334"
  viewBox="0,0,451.89512,85.99334"
>
  <rect
    x="0"
    y="0"
    width="451.89512"
    height="85.99334"
    fill="#fff"
    stroke="none"
  />
  <g transform="translate(-14.38578,-137.7397)">
    <g fill="#000000" stroke-miterlimit="10">
      <path
        d="M346.59476,163.28175v39.82565h-6.52513v-39.82565z
        M280.46451,153.2012c0,-1.80186 1.4607,-3.26256 3.26256,-3.26256c1.80187,0 3.26256,1.4607 3.26256,3.26256c0,1.80186 -1.4607,3.26256 -3.26256,3.26256c-1.80187,0 -3.26256,-1.4607 -3.26256,-3.26256z
        M444.7761,154.79385l-13.95207,19.01431l4.94212,-17.5401z
        M441.0541,199.64095l2.43923,-4.81428c0.62417,0.52265 1.30027,0.97993 2.0177,1.36468c0.66549,0.36122 1.3945,0.68739 2.18702,0.97852c1.56805,0.56916 3.21791,0.88066 4.88554,0.92242c0.17938,0.00544 0.35883,0.00813 0.53829,0.00809c2.39644,0 4.20455,-0.39576 5.42434,-1.18727c0.36394,-0.23102 0.69497,-0.51019 0.98408,-0.82993c0.55219,-0.60632 0.85415,-1.39933 0.84509,-2.21937c0.00357,-0.46705 -0.06444,-0.93188 -0.20167,-1.37832c-0.11043,-0.3525 -0.26931,-0.68795 -0.47208,-0.99672c-0.17179,-0.25569 -0.37186,-0.49119 -0.59641,-0.70205c-0.434,-0.4158 -1.00902,-0.82773 -1.72505,-1.23579c-0.04987,-0.02827 -0.09991,-0.05623 -0.15011,-0.0839c-1.08231,-0.59911 -2.60114,-1.24202 -4.5565,-1.92874c-0.21393,-0.07506 -0.42823,-0.14902 -0.64291,-0.22189c-3.12393,-1.06984 -5.46679,-2.34286 -7.02859,-3.81907c-1.08477,-1.03446 -1.82323,-2.37897 -2.11424,-3.8494c-0.15718,-0.75004 -0.23394,-1.51471 -0.22896,-2.28103c-0.01162,-2.20051 0.90916,-4.30301 2.53425,-5.78673c0.26648,-0.25642 0.54548,-0.49949 0.83599,-0.72833c1.15427,-0.894 2.46947,-1.55804 3.87416,-1.95604c1.0941,-0.32449 2.29704,-0.53745 3.60881,-0.63887c0.6177,-0.04694 1.23698,-0.07004 1.85647,-0.06924c2.1043,0 3.98081,0.21734 5.62954,0.65201c0.02782,0.00734 0.05562,0.01475 0.0834,0.02224c0.90027,0.24004 1.78634,0.53045 2.65404,0.86985c0.62671,0.2458 1.24058,0.52313 1.83928,0.83094l-1.60476,4.75008c-0.75202,-0.4423 -1.53951,-0.82134 -2.35432,-1.13319c-0.52305,-0.20154 -1.05459,-0.3803 -1.59313,-0.53576c-1.47655,-0.42793 -3.11348,-0.6419 -4.91081,-0.6419c-0.63061,-0.00316 -1.26064,0.03873 -1.88528,0.12535c-0.63955,0.09199 -1.21844,0.2352 -1.73668,0.42962c-0.52044,0.18935 -1.00905,0.45675 -1.44908,0.79303c-0.31699,0.24268 -0.60891,0.51647 -0.87137,0.81729c-0.3009,0.35044 -0.52296,0.7125 -0.66616,1.08618c-0.1294,0.33469 -0.19572,0.69045 -0.1956,1.04928c-0.00338,0.8589 0.34318,1.68213 0.95982,2.28002c0.12252,0.12463 0.25213,0.24208 0.38817,0.35178c0.26298,0.20776 0.54201,0.39434 0.83447,0.558c0.99503,0.56946 2.47141,1.17514 4.42913,1.81704c4.23656,1.41219 7.18932,2.97415 8.85827,4.68589c1.66895,1.71174 2.50342,3.85142 2.50342,6.41903c0,2.88806 -1.12358,5.18931 -3.37075,6.90375c-0.0843,0.06445 -0.16956,0.12764 -0.25575,0.18954c-1.24135,0.87248 -2.62719,1.5186 -4.09352,1.90853c-1.65817,0.46062 -3.53535,0.69093 -5.63156,0.69093c-1.25893,0.00444 -2.51648,-0.08375 -3.76246,-0.26384c-1.04141,-0.15123 -2.06917,-0.38497 -3.07355,-0.69902c-1.88898,-0.59641 -3.47302,-1.35912 -4.75211,-2.28811c-0.09679,-0.0703 -0.1925,-0.14208 -0.28709,-0.21532z
        M394.34143,163.28175l6.52513,4.0782l9.78769,16.31283l9.78769,-16.31283l6.52513,-4.0782l-28.96308,60.45129h-3.26256l12.65026,-31.90385z
        M369.8722,163.68175v-6.52513h6.52513v6.52513h13.05026l-13.05026,6.52513v32.90052h-6.52513v-32.90052l-13.05026,-6.52513z
        M286.98963,162.98888v39.82565h-6.52513v-39.82565z
        M250.66193,162.48175v-13.05026l11.6918,-11.69179h6.52513l-11.6918,11.69179v13.05026h13.05026l-13.05026,6.52513v34.10052h-6.52513v-34.10052l-13.05026,-6.52513z
        M206.61731,165.61918v13.05026h-6.52513c0,-9.00932 7.3035,-16.31282 16.31282,-16.31282c9.00932,0 16.31282,7.3035 16.31282,16.31282v24.43795l-6.52513,-3.26256v-21.17539c0,-5.40559 -4.3821,-9.78769 -9.78769,-9.78769c-5.40559,0 -9.78769,4.3821 -9.78769,9.78769v21.17539l-6.52513,3.26256v-40.75078z
        M162.57269,137.8561h32.62565l-13.05026,6.52513v52.20103l13.05026,6.52513h-32.62565l13.05026,-6.52513v-52.20103z
        M142.22676,186.54575h-25.65159c0.39368,3.19514 1.46032,5.73776 3.19992,7.62788c0.12772,0.13878 0.25915,0.27412 0.39412,0.40586c1.47223,1.4262 3.34837,2.36381 5.37279,2.68509c0.80901,0.13921 1.62863,0.20754 2.44953,0.20424c2.11414,0 4.01687,-0.22316 5.70818,-0.66948c1.69131,-0.44632 3.31216,-1.02184 4.86253,-1.72655l1.4799,5.4263c-0.99583,0.4395 -2.01583,0.82206 -3.05507,1.14581c-0.87501,0.27375 -1.76,0.51448 -2.65312,0.72168c-1.18199,0.2714 -2.38067,0.4641 -3.58817,0.57682c-1.17317,0.11107 -2.35102,0.16551 -3.52944,0.16313c-1.84364,0.0171 -3.68075,-0.22138 -5.45892,-0.70863c-2.7121,-0.74768 -5.15657,-2.24912 -7.04975,-4.33008c-2.72881,-2.97894 -4.24786,-7.01973 -4.55715,-12.12239c-0.0398,-0.6683 -0.05939,-1.33764 -0.05873,-2.00713c-0.01011,-1.85358 0.18665,-3.7025 0.58661,-5.51243c0.33354,-1.49096 0.83413,-2.93956 1.4923,-4.31833c0.87367,-1.85971 2.07044,-3.5496 3.53466,-4.99107c0.70216,-0.68282 1.46505,-1.30024 2.27923,-1.84465c2.15524,-1.43234 4.64771,-2.27591 7.22984,-2.44692c0.47848,-0.03695 0.95823,-0.05524 1.43814,-0.05481c1.29303,-0.00775 2.58379,0.10916 3.85439,0.34909c1.86227,0.36367 3.50204,1.01074 4.91929,1.94123c2.32556,1.52688 4.0756,3.5823 5.25012,6.16625c0.98606,2.19422 1.56532,4.5493 1.70958,6.95057c0.03499,0.52476 0.0524,1.05055 0.0522,1.57647c0.00187,1.57525 -0.06649,3.14981 -0.20489,4.71897c-0.00216,0.02436 -0.00433,0.04872 -0.00653,0.07308zM116.50471,181.40134h20.08435c0.00721,-1.08388 -0.08826,-2.16602 -0.28515,-3.2319c-0.39238,-2.04454 -1.18997,-3.71562 -2.39276,-5.01326c-1.30321,-1.39571 -3.02501,-2.32967 -4.90559,-2.66095c-0.82198,-0.15643 -1.65718,-0.23291 -2.4939,-0.22838c-1.23203,-0.01449 -2.45526,0.20907 -3.60252,0.65839c-1.20298,0.49023 -2.28292,1.23997 -3.16273,2.19571c-0.88765,0.96499 -1.59014,2.08508 -2.07238,3.30433c-0.3963,0.96745 -0.70341,2.04367 -0.92135,3.22863c-0.10541,0.57902 -0.18813,1.16194 -0.24795,1.74743z
        M79.09707,144.38123v35.88821h-6.52513c0,-9.00932 7.3035,-16.31282 16.31282,-16.31282c9.00932,0 16.31282,7.3035 16.31282,16.31282v22.83795l-6.52513,-3.26256v-19.57539c0,-5.40559 -4.3821,-9.78769 -9.78769,-9.78769c-5.40559,0 -9.78769,4.3821 -9.78769,9.78769v19.57539l-6.52513,3.26256v-65.25129z
        M14.38578,137.8561h53.29232l-3.26256,6.52513h-20.62103v58.72616h-6.52513v-58.72616h-19.62102z
        M302.4086,165.61918v13.05026h-6.52513c0,-9.00932 7.3035,-16.31282 16.31282,-16.31282c9.00932,0 16.31282,7.3035 16.31282,16.31282v24.43795l-6.52513,-3.26256v-21.17539c0,-5.40559 -4.3821,-9.78769 -9.78769,-9.78769c-5.40559,0 -9.78769,4.3821 -9.78769,9.78769v21.17539l-6.52513,3.26256v-40.75078z
        M340.06964,153.49407c0,-1.80186 1.4607,-3.26256 3.26256,-3.26256c1.80187,0 3.26256,1.4607 3.26256,3.26256c0,1.80186 -1.4607,3.26256 -3.26256,3.26256c-1.80187,0 -3.26256,-1.4607 -3.26256,-3.26256z"
        fill-rule="nonzero"
        stroke="none"
        stroke-width="1"
        stroke-linecap="butt"
      />
    </g>
  </g>
</svg>
